<svg xmlns="http://www.w3.org/2000/svg" width="400" height="300" viewBox="0 0 400 300"><style>text{font-family:-apple-system,BlinkMacSystemFont,&quot;SF Pro Display&quot;,system-ui,sans-serif}.label{font-size:10px;font-weight:500;fill:#1d1d1f}.node{stroke:#d2d2d7;fill:#f5f5f7;stroke-width:1;rx:10}</style><path d="M125 125h150v40H125z" style="fill:#0071e3;rx:14"/><text x="200" y="150" style="font-size:13px;font-weight:600;fill:#fff" text-anchor="middle">Personal Website</text><path d="M200 125 65 55m135 70V45m0 80 135-70m-210 90-70 65m220-65 70 65m-145-45v75" style="stroke:#d2d2d7;stroke-width:1.5;fill:none"/><path d="M15 35h100v30H15z" class="node"/><text x="65" y="55" class="label" text-anchor="middle">books/</text><path d="M148 20h104v30H148z" class="node"/><text x="200" y="40" class="label" text-anchor="middle">scroll/</text><path d="M285 35h100v30H285z" class="node"/><text x="335" y="55" class="label" text-anchor="middle">1971/</text><path d="M5 195h100v30H5z" class="node"/><text x="55" y="215" class="label" text-anchor="middle">bcgd/</text><path d="M295 195h100v30H295z" class="node"/><text x="345" y="215" class="label" text-anchor="middle">SEO + Schema</text><path d="M145 235h110v30H145z" class="node"/><text x="200" y="255" class="label" text-anchor="middle">GitHub Pages</text></svg>