<svg xmlns="http://www.w3.org/2000/svg" viewBox="0 0 400 300" width="400" height="300">
  <style>
    text { font-family: -apple-system, BlinkMacSystemFont, 'SF Pro Display', system-ui, sans-serif; }
    .title { font-size: 13px; font-weight: 600; fill: #fff; }
    .label { font-size: 10px; font-weight: 500; fill: #1d1d1f; }
    .line { stroke: #d2d2d7; stroke-width: 1.5; fill: none; }
    .node { fill: #f5f5f7; stroke: #d2d2d7; stroke-width: 1; rx: 10; }
    .center { fill: #0071e3; rx: 14; }
  </style>

  <!-- Center node -->
  <rect class="center" x="125" y="125" width="150" height="40"/>
  <text class="title" x="200" y="150" text-anchor="middle">Personal Website</text>

  <!-- Lines -->
  <line class="line" x1="200" y1="125" x2="80" y2="60"/>
  <line class="line" x1="200" y1="125" x2="200" y2="45"/>
  <line class="line" x1="200" y1="125" x2="325" y2="60"/>
  <line class="line" x1="150" y1="145" x2="60" y2="200"/>
  <line class="line" x1="250" y1="145" x2="340" y2="200"/>
  <line class="line" x1="200" y1="165" x2="200" y2="240"/>

  <!-- Top row -->
  <rect class="node" x="22" y="38" width="115" height="30"/>
  <text class="label" x="80" y="58" text-anchor="middle">Landing Page</text>

  <rect class="node" x="148" y="22" width="104" height="30"/>
  <text class="label" x="200" y="42" text-anchor="middle">SEO + Schema</text>

  <rect class="node" x="270" y="38" width="115" height="30"/>
  <text class="label" x="328" y="58" text-anchor="middle">Automation Page</text>

  <!-- Middle row -->
  <rect class="node" x="8" y="185" width="105" height="30"/>
  <text class="label" x="60" y="205" text-anchor="middle">Bread Embed</text>

  <rect class="node" x="290" y="185" width="105" height="30"/>
  <text class="label" x="342" y="205" text-anchor="middle">Chat Widget</text>

  <!-- Bottom -->
  <rect class="node" x="145" y="232" width="110" height="30"/>
  <text class="label" x="200" y="252" text-anchor="middle">GitHub Pages</text>
</svg>