<svg xmlns="http://www.w3.org/2000/svg" viewBox="0 0 400 300" width="400" height="300">
  <style>
    text { font-family: -apple-system, BlinkMacSystemFont, 'SF Pro Display', system-ui, sans-serif; }
    .title { font-size: 14px; font-weight: 600; fill: #fff; }
    .label { font-size: 10px; font-weight: 500; fill: #1d1d1f; }
    .line { stroke: #d2d2d7; stroke-width: 1.5; fill: none; }
    .node { fill: #f5f5f7; stroke: #d2d2d7; stroke-width: 1; rx: 10; }
    .center { fill: #0071e3; rx: 14; }
  </style>

  <!-- Center node -->
  <rect class="center" x="145" y="125" width="110" height="40"/>
  <text class="title" x="200" y="150" text-anchor="middle">Portfolio</text>

  <!-- Lines -->
  <line class="line" x1="200" y1="125" x2="80" y2="55"/>
  <line class="line" x1="200" y1="125" x2="200" y2="42"/>
  <line class="line" x1="200" y1="125" x2="320" y2="55"/>
  <line class="line" x1="145" y1="145" x2="55" y2="200"/>
  <line class="line" x1="255" y1="145" x2="345" y2="200"/>
  <line class="line" x1="200" y1="165" x2="110" y2="250"/>
  <line class="line" x1="200" y1="165" x2="290" y2="250"/>

  <!-- Top row -->
  <rect class="node" x="20" y="35" width="120" height="30"/>
  <text class="label" x="80" y="55" text-anchor="middle">Landing Page</text>

  <rect class="node" x="148" y="18" width="104" height="30"/>
  <text class="label" x="200" y="38" text-anchor="middle">Bread Embed</text>

  <rect class="node" x="268" y="35" width="110" height="30"/>
  <text class="label" x="323" y="55" text-anchor="middle">Clockwork Page</text>

  <!-- Middle row -->
  <rect class="node" x="5" y="185" width="105" height="30"/>
  <text class="label" x="57" y="205" text-anchor="middle">Automation Page</text>

  <rect class="node" x="295" y="185" width="100" height="30"/>
  <text class="label" x="345" y="205" text-anchor="middle">Chat Widget</text>

  <!-- Bottom row -->
  <rect class="node" x="48" y="238" width="120" height="30"/>
  <text class="label" x="108" y="258" text-anchor="middle">GitHub Pages</text>

  <rect class="node" x="232" y="238" width="120" height="30"/>
  <text class="label" x="292" y="258" text-anchor="middle">SEO + Schema</text>
</svg>