<svg xmlns="http://www.w3.org/2000/svg" width="200" height="200" viewBox="0 0 200 200">
  <rect width="200" height="200" rx="40" fill="#0f0f0f"/>
  <g stroke="rgba(255,255,255,0.22)" stroke-width="1.5" stroke-linecap="round">
    <line x1="100" y1="48" x2="64" y2="74"/>
    <line x1="100" y1="48" x2="136" y2="74"/>
    <line x1="64" y1="74" x2="52" y2="108"/>
    <line x1="136" y1="74" x2="148" y2="108"/>
    <line x1="64" y1="74" x2="100" y2="100"/>
    <line x1="136" y1="74" x2="100" y2="100"/>
    <line x1="52" y1="108" x2="100" y2="100"/>
    <line x1="148" y1="108" x2="100" y2="100"/>
    <line x1="52" y1="108" x2="80" y2="148"/>
    <line x1="148" y1="108" x2="120" y2="148"/>
    <line x1="100" y1="100" x2="80" y2="148"/>
    <line x1="100" y1="100" x2="120" y2="148"/>
    <line x1="80" y1="148" x2="120" y2="148"/>
  </g>
  <g fill="#7aab7a">
    <circle cx="100" cy="48" r="8"/>
    <circle cx="64" cy="74" r="7"/>
    <circle cx="136" cy="74" r="7"/>
    <circle cx="52" cy="108" r="7"/>
    <circle cx="100" cy="100" r="9"/>
    <circle cx="148" cy="108" r="7"/>
    <circle cx="80" cy="148" r="7"/>
    <circle cx="120" cy="148" r="7"/>
  </g>
</svg>
