<svg xmlns="http://www.w3.org/2000/svg" viewBox="0 0 512 512" width="512" height="512">
  <defs>
    <linearGradient id="bg" x1="0%" y1="0%" x2="100%" y2="100%">
      <stop offset="0%" style="stop-color:#f0f4f8"/>
      <stop offset="100%" style="stop-color:#dfe9f3"/>
    </linearGradient>
  </defs>
  <circle cx="256" cy="256" r="240" fill="url(#bg)" stroke="#b0c4d8" stroke-width="4"/>
  <!-- Yin-Yang -->
  <path d="M256 16 A240 240 0 0 1 256 496 A120 120 0 0 1 256 256 A120 120 0 0 0 256 16Z" fill="#4a6741"/>
  <path d="M256 16 A240 240 0 0 0 256 496 A120 120 0 0 0 256 256 A120 120 0 0 1 256 16Z" fill="#f0f4f8"/>
  <circle cx="256" cy="136" r="32" fill="#f0f4f8"/>
  <circle cx="256" cy="376" r="32" fill="#4a6741"/>
  <!-- Compass ticks -->
  <line x1="256" y1="4" x2="256" y2="28" stroke="#8a9e90" stroke-width="4"/>
  <line x1="256" y1="484" x2="256" y2="508" stroke="#8a9e90" stroke-width="4"/>
  <line x1="4" y1="256" x2="28" y2="256" stroke="#8a9e90" stroke-width="4"/>
  <line x1="484" y1="256" x2="508" y2="256" stroke="#8a9e90" stroke-width="4"/>
  <!-- Diagonal ticks -->
  <line x1="73" y1="73" x2="90" y2="90" stroke="#8a9e90" stroke-width="3"/>
  <line x1="422" y1="422" x2="439" y2="439" stroke="#8a9e90" stroke-width="3"/>
  <line x1="439" y1="73" x2="422" y2="90" stroke="#8a9e90" stroke-width="3"/>
  <line x1="73" y1="439" x2="90" y2="422" stroke="#8a9e90" stroke-width="3"/>
</svg>
