<svg xmlns="http://www.w3.org/2000/svg" viewBox="0 0 192 192" width="192" height="192">
  <defs>
    <linearGradient id="bg" x1="0%" y1="0%" x2="100%" y2="100%">
      <stop offset="0%" style="stop-color:#f0f4f8"/>
      <stop offset="100%" style="stop-color:#dfe9f3"/>
    </linearGradient>
  </defs>
  <circle cx="96" cy="96" r="90" fill="url(#bg)" stroke="#b0c4d8" stroke-width="2"/>
  <!-- Yin-Yang -->
  <path d="M96 6 A90 90 0 0 1 96 186 A45 45 0 0 1 96 96 A45 45 0 0 0 96 6Z" fill="#4a6741"/>
  <path d="M96 6 A90 90 0 0 0 96 186 A45 45 0 0 0 96 96 A45 45 0 0 1 96 6Z" fill="#f0f4f8"/>
  <circle cx="96" cy="51" r="12" fill="#f0f4f8"/>
  <circle cx="96" cy="141" r="12" fill="#4a6741"/>
  <!-- Compass ticks -->
  <line x1="96" y1="2" x2="96" y2="14" stroke="#8a9e90" stroke-width="2"/>
  <line x1="96" y1="178" x2="96" y2="190" stroke="#8a9e90" stroke-width="2"/>
  <line x1="2" y1="96" x2="14" y2="96" stroke="#8a9e90" stroke-width="2"/>
  <line x1="178" y1="96" x2="190" y2="96" stroke="#8a9e90" stroke-width="2"/>
</svg>
