<svg xmlns="http://www.w3.org/2000/svg" width="200" height="200" viewBox="0 0 200 200"><rect width="200" height="200" fill="#f5f5f7" stroke="#d1d5db" rx="32"/><rect width="100" height="130" x="50" y="35" fill="#fff" stroke="#6b7280" stroke-width="2" rx="6"/><circle cx="50" cy="55" r="4" fill="none" stroke="#6b7280" stroke-width="1.5"/><circle cx="50" cy="80" r="4" fill="none" stroke="#6b7280" stroke-width="1.5"/><circle cx="50" cy="105" r="4" fill="none" stroke="#6b7280" stroke-width="1.5"/><circle cx="50" cy="130" r="4" fill="none" stroke="#6b7280" stroke-width="1.5"/><circle cx="50" cy="155" r="4" fill="none" stroke="#6b7280" stroke-width="1.5"/><path stroke="#d1d5db" stroke-width=".8" d="M65 60h73M65 75h73M65 90h73m-73 15h73m-73 15h73m-73 15h73m-73 15h73"/><path stroke="#374151" stroke-linecap="round" stroke-width="1.5" d="M65 60h60M65 75h67M65 90h45m-45 15h63"/><g transform="rotate(35 -146.154 255.296)"><rect width="45" height="8" y="-4" fill="#f59e0b" rx="1"/><path fill="#374151" d="m45-4 10 4-10 4z"/><rect width="8" height="8" y="-4" fill="#f472b6" opacity=".7" rx="1"/></g></svg>