<svg xmlns="http://www.w3.org/2000/svg" width="200" height="200" viewBox="0 0 200 200">
  <rect width="200" height="200" rx="32" fill="#f5f5f7" stroke="#d1d5db" stroke-width="1"/>
  <!-- Outer compass circle -->
  <circle cx="100" cy="100" r="52" fill="none" stroke="#16a34a" stroke-width="2"/>
  <circle cx="100" cy="100" r="48" fill="none" stroke="#16a34a" stroke-width="0.5" opacity="0.3"/>
  <!-- Bagua octagon -->
  <polygon points="100,52 133,67 148,100 133,133 100,148 67,133 52,100 67,67" fill="none" stroke="#b8860b" stroke-width="1.5" opacity="0.6"/>
  <!-- Cardinal direction marks -->
  <line x1="100" y1="48" x2="100" y2="56" stroke="#16a34a" stroke-width="2" stroke-linecap="round"/>
  <line x1="100" y1="144" x2="100" y2="152" stroke="#16a34a" stroke-width="2" stroke-linecap="round"/>
  <line x1="48" y1="100" x2="56" y2="100" stroke="#16a34a" stroke-width="2" stroke-linecap="round"/>
  <line x1="144" y1="100" x2="152" y2="100" stroke="#16a34a" stroke-width="2" stroke-linecap="round"/>
  <!-- Diagonal marks -->
  <line x1="64" y1="64" x2="70" y2="70" stroke="#16a34a" stroke-width="1.5" stroke-linecap="round" opacity="0.5"/>
  <line x1="130" y1="70" x2="136" y2="64" stroke="#16a34a" stroke-width="1.5" stroke-linecap="round" opacity="0.5"/>
  <line x1="64" y1="136" x2="70" y2="130" stroke="#16a34a" stroke-width="1.5" stroke-linecap="round" opacity="0.5"/>
  <line x1="130" y1="130" x2="136" y2="136" stroke="#16a34a" stroke-width="1.5" stroke-linecap="round" opacity="0.5"/>
  <!-- Yin-yang center -->
  <circle cx="100" cy="100" r="14" fill="none" stroke="#b8860b" stroke-width="1.5"/>
  <path d="M100 86 A14 14 0 0 1 100 114 A7 7 0 0 0 100 100 A7 7 0 0 1 100 86" fill="#16a34a" opacity="0.5"/>
  <path d="M100 114 A14 14 0 0 1 100 86 A7 7 0 0 0 100 100 A7 7 0 0 1 100 114" fill="#b8860b" opacity="0.3"/>
  <circle cx="100" cy="93" r="2.5" fill="#b8860b" opacity="0.6"/>
  <circle cx="100" cy="107" r="2.5" fill="#16a34a" opacity="0.6"/>
</svg>
