<?xml version="1.0" standalone="no"?>
<!DOCTYPE svg PUBLIC "-//W3C//DTD SVG 20010904//EN"
 "http://www.w3.org/TR/2001/REC-SVG-20010904/DTD/svg10.dtd">
<svg version="1.0" xmlns="http://www.w3.org/2000/svg"
 width="128.000000pt" height="128.000000pt" viewBox="0 0 128.000000 128.000000"
 preserveAspectRatio="xMidYMid meet">
<metadata>
Created by potrace 1.16, written by Peter Selinger 2001-2019
</metadata>
<g transform="translate(0.000000,128.000000) scale(0.100000,-0.100000)"
fill="#000000" stroke="none">
<path d="M481 970 c-1 -18 27 -54 54 -69 17 -9 14 -10 -20 -7 -30 3 -39 7 -37
20 2 9 -2 16 -8 16 -5 0 -11 -6 -12 -12 -1 -13 -4 -28 -7 -38 -1 -3 -4 -43 -7
-90 -3 -59 -1 -80 6 -70 5 8 10 31 10 51 0 66 16 94 61 106 26 7 55 7 81 1 23
-5 48 -7 57 -5 9 3 5 5 -9 6 -35 1 -120 48 -147 80 -15 17 -22 21 -22 11z"/>
<path d="M773 873 c9 -2 23 -2 30 0 6 3 -1 5 -18 5 -16 0 -22 -2 -12 -5z"/>
<path d="M851 873 l-23 -5 21 -14 c12 -9 26 -12 31 -9 12 7 14 36 3 34 -5 -1
-19 -4 -32 -6z"/>
<path d="M898 817 c-5 -10 -8 -49 -8 -85 1 -50 3 -63 11 -50 5 10 9 48 7 85
-2 43 -6 61 -10 50z"/>
<path d="M548 683 c17 -7 15 -23 -4 -23 -21 0 -12 -24 10 -28 9 -2 23 2 31 8
20 17 1 50 -28 49 -12 0 -16 -3 -9 -6z"/>
<path d="M762 668 c-17 -17 -15 -58 2 -58 27 0 46 12 46 29 0 17 -18 41 -30
41 -3 0 -11 -5 -18 -12z"/>
<path d="M879 643 c4 -16 6 -35 4 -43 -4 -12 -3 -12 5 -2 10 15 4 59 -9 67 -4
3 -4 -7 0 -22z"/>
<path d="M136 485 c18 -63 71 -155 124 -214 79 -89 204 -155 323 -171 224 -29
447 86 551 283 20 38 36 77 36 88 0 10 5 19 10 19 6 0 10 3 10 8 0 4 -70 7
-156 7 l-155 -1 -20 -34 c-22 -38 -80 -86 -146 -120 -30 -15 -51 -19 -76 -15
-45 9 -125 70 -162 125 l-30 45 -110 0 c-61 -1 -115 -4 -121 -8 -6 -3 -14 -4
-18 0 -3 3 -19 7 -36 7 -25 1 -29 -2 -24 -19z"/>
<path d="M570 477 c0 -8 9 -26 20 -39 16 -20 29 -26 67 -26 48 -1 74 13 95 51
9 17 5 18 -59 16 -37 -1 -80 1 -95 5 -22 6 -28 5 -28 -7z"/>
</g>
</svg>
