<svg xmlns="http://www.w3.org/2000/svg" font-family="-apple-system, system-ui, sans-serif" viewBox="0 0 700 180"><defs><marker id="arrowhead" markerHeight="7" markerWidth="10" orient="auto" refX="10" refY="3.5"><path fill="#666" d="m0 0 10 3.5L0 7z"/></marker><style>.box{fill:#1a1a1a;stroke:#6b7280;stroke-width:2}.label,.sub{fill:#e0e0e0;font-size:13px;text-anchor:middle}.sub{fill:#888;font-size:10px}.arrow{stroke:#666;stroke-width:2;fill:none;marker-end:url(#arrowhead)}</style></defs><path fill="#111" d="M0 0h700v180H0z"/><rect width="120" height="50" x="20" y="65" class="box" rx="8"/><text x="80" y="87" class="label">Markdown Files</text><text x="80" y="103" class="sub">*.md notes</text><path d="M142 90h36" class="arrow"/><rect width="140" height="50" x="180" y="65" class="box" rx="8"/><text x="250" y="87" class="label">GitHub Repo</text><text x="250" y="103" class="sub">nulljosh/notes</text><path d="M322 90h36" class="arrow"/><rect width="140" height="50" x="360" y="65" class="box" rx="8"/><text x="430" y="87" class="label">GitHub Pages</text><text x="430" y="103" class="sub">static deploy</text><path d="M502 90h36" class="arrow"/><rect width="140" height="50" x="540" y="65" class="box" rx="8"/><text x="610" y="87" class="label">Cloudflare DNS</text><text x="610" y="103" class="sub">notes.heyitsmejosh.com</text><rect width="140" height="35" x="180" y="15" class="box" rx="8" style="stroke:#f59e0b"/><text x="250" y="37" class="label">index.html</text><path d="M250 52v11" class="arrow"/></svg>