<svg xmlns="http://www.w3.org/2000/svg" viewBox="0 0 200 200" width="200" height="200">
  <rect width="200" height="200" rx="32" fill="#f5f5f7"/>
  <!-- Shield shape -->
  <path d="M100 30 L150 55 L150 110 Q150 150 100 175 Q50 150 50 110 L50 55 Z" fill="none" stroke="#1a5a96" stroke-width="3"/>
  <path d="M100 42 L142 62 L142 108 Q142 142 100 163 Q58 142 58 108 L58 62 Z" fill="#1a5a96" opacity="0.08"/>
  <!-- Digital grid inside shield -->
  <line x1="75" y1="75" x2="125" y2="75" stroke="#1a5a96" stroke-width="0.8" opacity="0.3"/>
  <line x1="75" y1="95" x2="125" y2="95" stroke="#1a5a96" stroke-width="0.8" opacity="0.3"/>
  <line x1="75" y1="115" x2="125" y2="115" stroke="#1a5a96" stroke-width="0.8" opacity="0.3"/>
  <line x1="85" y1="65" x2="85" y2="130" stroke="#1a5a96" stroke-width="0.8" opacity="0.3"/>
  <line x1="100" y1="65" x2="100" y2="140" stroke="#1a5a96" stroke-width="0.8" opacity="0.3"/>
  <line x1="115" y1="65" x2="115" y2="130" stroke="#1a5a96" stroke-width="0.8" opacity="0.3"/>
  <!-- BC text -->
  <text x="100" y="102" text-anchor="middle" font-family="-apple-system,sans-serif" font-size="28" font-weight="800" fill="#1a5a96">BC</text>
  <!-- Garage door lines at bottom -->
  <rect x="80" y="125" width="40" height="3" rx="1" fill="#2472b2" opacity="0.5"/>
  <rect x="80" y="131" width="40" height="3" rx="1" fill="#2472b2" opacity="0.4"/>
  <rect x="80" y="137" width="40" height="3" rx="1" fill="#2472b2" opacity="0.3"/>
</svg>
